<?xml version="1.0" encoding="UTF-8" standalone="no"?>
<svg xmlns="http://www.w3.org/2000/svg" version="1.1" viewBox="0 0 510 543.45" height="543.45" width="510">
 <defs/>
 <g>
  <g>
   <g transform="translate(969.31,-77.786)">
    <path d="m -752.31,186.72 c 7.8,3.55 15.5,7.33 23.7,9.75 12.5,4.02 25.5,6.32 38.6,6.71 6.1,0.69 12.2,-0.26 18.3,-0.35 -2.9,6.18 -8.9,10.34 -14.8,13.49 -7.6,3.95 -16.2,6.24 -24.8,6.51 -1.7,0.12 -3.4,0.6 -5.1,0.1 -8.2,-0.12 -16.4,-2.05 -23.6,-5.96 -7.6,-4.44 -13.9,-12.22 -14.4,-21.24 -0.1,-3.12 0.8,-6.17 2.1,-8.96 z"/>
    <path d="m -759.91,242.86 c 0.3,0.1 0.8,0.16 1,0.21 2.9,4.34 3.5,9.98 1.8,14.87 -1.7,5.11 -5.4,9.33 -9.4,12.73 -3.9,2.87 -8.8,5.21 -13.7,3.9 -4.1,-0.95 -6.8,-5.22 -6.7,-9.34 8.8,-3.21 17.5,-7.72 23.3,-15.16 1.7,-2.17 3,-4.57 3.7,-7.21 z"/>
   </g>
   <path d="m 255.1,5 0.2,0 C 344.44,162.25 426.29,297.53 505,437.82 328.68,437.16 167.88,437.65 5,437.27 L 5,437.05 255.1,5" style="fill:#E81B23"/>
   <g transform="translate(-630.48,-24.892)" style="fill:#ffffff">
    <path d="m 873.49,447.15 c -4.2,-7.79 -9,-15.27 -13.4,-22.96 -17.1,-29.06 -34.2,-58.12 -51.2,-87.25 -5.7,-10.03 -12.3,-19.8 -15.1,-31.12 -2.2,-8.73 -2.1,-18.01 0.9,-26.54 2.8,-7.42 7.4,-14.08 12.8,-19.78 12.1,-12.39 25.2,-23.9 36.9,-36.7 2.4,-2.46 4.4,-5.29 5.8,-8.39 4,-8.2 3.6,-18.66 -1.9,-26.11 -2.4,-3.46 -6,-5.69 -9.7,-7.67 2.3,-0.16 4.8,0 6.7,-1.5 3.2,-2.09 4.7,-6.1 4.1,-9.84 -0.7,-1.81 -1.7,-3.48 -3,-4.91 9.4,2.25 18,8.16 22.9,16.62 6.1,10.81 7.1,23.81 5.6,35.95 -2.4,18.51 -7.4,36.55 -11.2,54.78 -1.8,9.35 -2.2,19.71 2.5,28.29 2.8,4.78 8.4,9.24 14.2,7.34 0.9,-13.49 6.6,-26.56 15.4,-36.74 10,-11.37 24,-18.97 38.9,-21.32 12.3,-1.92 25.2,-0.32 36.6,4.62 14.6,6.38 26.3,18.59 33.01,32.98 4.1,9.14 6.7,19.28 5.6,29.35 -3.3,-5.6 -7.4,-10.81 -12.61,-14.76 -13.2,-10.68 -32.2,-13.47 -48,-7.01 -3.5,1.48 -7,3.15 -10,5.53 17.2,-3.62 36.1,2.4 47.6,15.64 6.1,6.8 10.3,15.23 11.9,24.21 2.51,12.98 -0.4,26.93 -8,37.77 -0.3,-1.78 0.9,-3.55 0.7,-5.39 l 0.3,-0.49 c 0.6,-8.17 -1.1,-16.6 -5.6,-23.54 -5.7,-9.2 -15.6,-15.72 -26.4,-17.18 -6,-0.42 -12.4,-0.46 -18.1,2.04 -0.5,0.25 -1,0.5 -1.6,0.75 13.3,-0.18 26.3,6.67 34.1,17.34 5.8,7.78 8.7,17.61 8.2,27.31 -0.3,13.07 -7.3,25.63 -18,33.14 0.7,-6.23 1,-12.64 -0.8,-18.73 -3.1,-12.93 -12.8,-23.99 -25.1,-28.99 -8.9,-3.69 -18.9,-4.13 -28.1,-1.51 -13.4,3.73 -24.2,14.5 -28.9,27.47 -4.3,10.85 -4.8,23.06 -1.4,34.21 2.4,8.17 6.7,15.58 10.8,22.96 z"/>
    <path d="m 847.49,133.81 c 7.8,3.55 15.5,7.33 23.7,9.75 12.5,4.02 25.5,6.32 38.6,6.71 6.1,0.69 12.2,-0.26 18.3,-0.35 -2.9,6.18 -8.9,10.34 -14.8,13.49 -7.6,3.95 -16.2,6.24 -24.8,6.51 -1.7,0.12 -3.4,0.6 -5.1,0.1 -8.2,-0.12 -16.4,-2.05 -23.6,-5.96 -7.6,-4.44 -13.9,-12.22 -14.4,-21.24 -0.1,-3.12 0.8,-6.17 2.1,-8.96 z"/>
    <path d="m 839.89,189.95 c 0.3,0.1 0.8,0.16 1,0.21 2.9,4.34 3.5,9.98 1.8,14.87 -1.7,5.11 -5.4,9.33 -9.4,12.73 -3.9,2.87 -8.8,5.21 -13.7,3.9 -4.1,-0.95 -6.8,-5.22 -6.7,-9.34 8.8,-3.21 17.5,-7.72 23.3,-15.16 1.7,-2.17 3,-4.57 3.7,-7.21 z"/>
   </g>
  </g>
 </g>
</svg>
